<mxfile host="www.draw.io" modified="2024-06-16T14:13:21.790Z" agent="Mozilla/5.0 (Windows NT 10.0; Win64; x64) AppleWebKit/537.36 (KHTML, like Gecko) Chrome/124.0.0.0 Safari/537.36 OPR/110.0.0.0" etag="QvrqD6TSN9YjGkFFrDy9" version="24.5.4" type="device">
  <diagram id="C5RBs43oDa-KdzZeNtuy" name="Page-1">
    <mxGraphModel dx="1033" dy="598" grid="1" gridSize="10" guides="1" tooltips="1" connect="1" arrows="1" fold="1" page="1" pageScale="1" pageWidth="827" pageHeight="1169" math="0" shadow="0">
      <root>
        <mxCell id="WIyWlLk6GJQsqaUBKTNV-0" />
        <mxCell id="WIyWlLk6GJQsqaUBKTNV-1" parent="WIyWlLk6GJQsqaUBKTNV-0" />
        <mxCell id="Pl-QBQM9p-f2ogkw5KEy-0" value="Modeling" style="shape=umlFrame;whiteSpace=wrap;html=1;pointerEvents=0;recursiveResize=0;container=1;collapsible=0;width=160;" vertex="1" parent="WIyWlLk6GJQsqaUBKTNV-1">
          <mxGeometry x="10" y="240" width="610" height="140" as="geometry" />
        </mxCell>
        <mxCell id="Pl-QBQM9p-f2ogkw5KEy-3" style="edgeStyle=orthogonalEdgeStyle;rounded=0;orthogonalLoop=1;jettySize=auto;html=1;entryX=0;entryY=0.5;entryDx=0;entryDy=0;" edge="1" parent="WIyWlLk6GJQsqaUBKTNV-1" source="Pl-QBQM9p-f2ogkw5KEy-1" target="Pl-QBQM9p-f2ogkw5KEy-2">
          <mxGeometry relative="1" as="geometry" />
        </mxCell>
        <mxCell id="Pl-QBQM9p-f2ogkw5KEy-1" value="&lt;font style=&quot;font-size: 15px;&quot; face=&quot;Times New Roman&quot;&gt;Mendapatkan Depedency YOLOv8&lt;/font&gt;" style="rounded=0;whiteSpace=wrap;html=1;" vertex="1" parent="WIyWlLk6GJQsqaUBKTNV-1">
          <mxGeometry x="20" y="290" width="168" height="60" as="geometry" />
        </mxCell>
        <mxCell id="Pl-QBQM9p-f2ogkw5KEy-5" style="edgeStyle=orthogonalEdgeStyle;rounded=0;orthogonalLoop=1;jettySize=auto;html=1;entryX=0;entryY=0.5;entryDx=0;entryDy=0;" edge="1" parent="WIyWlLk6GJQsqaUBKTNV-1" source="Pl-QBQM9p-f2ogkw5KEy-2" target="Pl-QBQM9p-f2ogkw5KEy-4">
          <mxGeometry relative="1" as="geometry" />
        </mxCell>
        <mxCell id="Pl-QBQM9p-f2ogkw5KEy-2" value="&lt;font style=&quot;font-size: 15px;&quot; face=&quot;Times New Roman&quot;&gt;Pelatihan Model&lt;/font&gt;" style="rounded=0;whiteSpace=wrap;html=1;" vertex="1" parent="WIyWlLk6GJQsqaUBKTNV-1">
          <mxGeometry x="260" y="290" width="140" height="60" as="geometry" />
        </mxCell>
        <mxCell id="Pl-QBQM9p-f2ogkw5KEy-8" style="edgeStyle=orthogonalEdgeStyle;rounded=0;orthogonalLoop=1;jettySize=auto;html=1;entryX=0;entryY=0.5;entryDx=0;entryDy=0;" edge="1" parent="WIyWlLk6GJQsqaUBKTNV-1" source="Pl-QBQM9p-f2ogkw5KEy-4" target="Pl-QBQM9p-f2ogkw5KEy-6">
          <mxGeometry relative="1" as="geometry" />
        </mxCell>
        <mxCell id="Pl-QBQM9p-f2ogkw5KEy-4" value="&lt;font style=&quot;font-size: 15px;&quot; face=&quot;Times New Roman&quot;&gt;Validasi Model&lt;/font&gt;" style="rounded=0;whiteSpace=wrap;html=1;" vertex="1" parent="WIyWlLk6GJQsqaUBKTNV-1">
          <mxGeometry x="460" y="290" width="140" height="60" as="geometry" />
        </mxCell>
        <mxCell id="Pl-QBQM9p-f2ogkw5KEy-9" style="edgeStyle=orthogonalEdgeStyle;rounded=0;orthogonalLoop=1;jettySize=auto;html=1;entryX=0.5;entryY=0;entryDx=0;entryDy=0;" edge="1" parent="WIyWlLk6GJQsqaUBKTNV-1" source="Pl-QBQM9p-f2ogkw5KEy-6" target="Pl-QBQM9p-f2ogkw5KEy-7">
          <mxGeometry relative="1" as="geometry" />
        </mxCell>
        <mxCell id="Pl-QBQM9p-f2ogkw5KEy-6" value="&lt;font style=&quot;font-size: 15px;&quot; face=&quot;Times New Roman&quot;&gt;Testing Model&lt;/font&gt;" style="rounded=0;whiteSpace=wrap;html=1;" vertex="1" parent="WIyWlLk6GJQsqaUBKTNV-1">
          <mxGeometry x="670" y="290" width="140" height="60" as="geometry" />
        </mxCell>
        <mxCell id="Pl-QBQM9p-f2ogkw5KEy-7" value="&lt;font style=&quot;font-size: 15px;&quot; face=&quot;Times New Roman&quot;&gt;Evaluasi Model&lt;/font&gt;" style="rounded=0;whiteSpace=wrap;html=1;" vertex="1" parent="WIyWlLk6GJQsqaUBKTNV-1">
          <mxGeometry x="670" y="400" width="140" height="60" as="geometry" />
        </mxCell>
      </root>
    </mxGraphModel>
  </diagram>
</mxfile>
